<svg version="1.0" xmlns="http://www.w3.org/2000/svg"
 width="512.000000pt" height="512.000000pt" viewBox="0 0 512.000000 512.000000"
 preserveAspectRatio="xMidYMid meet">
<metadata>
Created by potrace 1.16, written by Peter Selinger 2001-2019
</metadata>
<g transform="translate(0.000000,512.000000) scale(0.100000,-0.100000)"
fill="#ffffff" stroke="none">
<path d="M2951 4743 c-52 -128 -152 -245 -248 -291 -35 -17 -43 -36 -17 -46
28 -11 111 34 164 90 56 59 116 173 126 240 10 68 0 71 -25 7z"/>
<path d="M3013 4674 c-8 -21 5 -111 23 -153 46 -111 198 -181 299 -137 l30 13
-59 17 c-74 22 -141 86 -190 184 -27 55 -42 72 -66 81 -25 8 -32 7 -37 -5z"/>
<path d="M1870 4429 c-146 -69 -273 -162 -410 -299 -228 -228 -345 -436 -406
-720 -37 -174 -18 -470 37 -585 l19 -40 -5 35 c-3 19 -8 105 -11 191 -10 241
22 397 126 614 86 180 199 335 359 490 53 52 71 76 71 96 0 20 13 39 48 69 49
44 167 127 237 167 63 36 28 26 -65 -18z"/>
<path d="M2871 4341 c-17 -67 -59 -130 -117 -176 -73 -58 -73 -58 -29 -50 59
10 136 50 189 96 49 43 100 121 94 140 -4 12 -79 39 -109 39 -10 0 -19 -17
-28 -49z"/>
<path d="M2516 4279 c-462 -53 -884 -350 -1008 -709 -65 -189 -84 -466 -48
-675 28 -159 112 -351 217 -498 60 -83 254 -287 274 -287 8 0 10 79 8 288 -5
337 -9 321 102 376 117 59 109 75 109 -209 l0 -245 50 0 50 0 0 300 0 300 -81
-30 c-150 -55 -242 -118 -270 -185 -8 -19 -14 -115 -18 -267 l-6 -236 -59 70
c-222 266 -327 526 -328 813 -1 295 106 543 326 753 102 96 255 195 395 252
44 18 79 35 77 38 -9 8 -173 -52 -260 -95 -48 -24 -90 -42 -93 -39 -9 8 79 67
171 113 152 77 375 141 551 159 36 4 68 11 71 15 6 11 -134 10 -230 -2z"/>
<path d="M3080 4172 l0 -68 48 -23 c26 -13 84 -45 130 -73 l82 -49 0 -44 c0
-62 10 -81 88 -179 73 -91 144 -224 184 -341 l23 -70 -3 -825 c-2 -521 -7
-837 -13 -858 -10 -32 -11 -32 -74 -32 -48 0 -64 4 -69 16 -3 9 -6 110 -6 225
0 125 -4 209 -9 209 -6 0 -21 -15 -35 -33 -26 -34 -26 -35 -26 -234 l0 -200
-73 -56 c-63 -49 -308 -296 -331 -335 -26 -43 177 98 314 219 41 36 84 70 95
76 11 6 61 14 111 17 l90 7 12 -27 c12 -25 15 -26 64 -20 29 4 106 25 172 47
94 32 129 39 161 35 133 -21 194 -140 126 -247 -34 -55 -68 -82 -128 -105 -39
-15 -53 -16 -106 -6 -34 7 -68 13 -74 14 -7 1 -13 7 -13 14 0 20 -49 73 -84
91 -17 9 -73 29 -124 44 -113 33 -109 23 30 -68 133 -88 150 -129 97 -234 -24
-47 -110 -125 -188 -169 -34 -19 -69 -40 -79 -47 -33 -23 29 -3 114 38 92 43
185 121 215 180 11 22 22 59 25 83 l6 43 49 -18 c60 -23 160 -25 219 -4 128
45 206 191 166 312 -23 68 -68 119 -137 154 l-59 29 0 190 c0 105 -3 190 -7
190 -5 0 -23 -22 -40 -48 l-33 -48 0 -148 c0 -96 -4 -145 -10 -141 -6 4 -10
62 -11 138 -1 198 -16 271 -18 92 -4 -246 -9 -257 -136 -294 -88 -26 -107 -26
-131 0 -18 20 -19 46 -22 568 -1 300 1 636 5 746 8 195 8 199 26 172 16 -24
18 -64 20 -426 1 -220 5 -402 8 -405 3 -3 99 -3 214 1 193 6 205 7 179 21 -19
10 -75 18 -164 23 -74 4 -136 8 -137 8 -2 1 -3 40 -3 87 0 47 4 83 9 80 4 -3
19 6 32 20 29 32 71 54 100 54 20 0 21 -4 17 -45 -6 -51 -11 -51 94 12 l58 34
-24 47 c-46 92 -59 179 -59 397 1 140 -2 192 -9 175 -25 -64 -39 -181 -45
-357 l-6 -193 -31 0 c-17 0 -50 -9 -73 -19 -23 -11 -44 -17 -47 -13 -3 3 -6
143 -6 311 0 337 -8 432 -47 554 -57 182 -150 325 -328 502 -112 112 -333 295
-357 295 -5 0 -8 -31 -8 -68z"/>
<path d="M2600 4165 c-19 -15 -56 -37 -81 -50 l-47 -24 -3 -83 c-4 -84 -25
-144 -67 -192 -16 -17 -17 -13 -22 65 -5 83 -5 84 -32 87 -24 3 -28 8 -28 35
0 25 -3 29 -10 17 -6 -9 -8 -54 -4 -110 l6 -95 -54 -56 c-40 -41 -58 -68 -66
-102 -8 -30 -12 -155 -12 -361 0 -266 -2 -317 -15 -330 -8 -8 -50 -36 -93 -62
-163 -100 -332 -241 -332 -276 0 -7 6 -6 18 4 93 81 218 174 288 214 47 27
122 72 167 99 l82 50 5 300 c7 373 4 364 156 529 44 47 89 109 113 155 39 75
76 182 69 202 -2 5 -19 -2 -38 -16z"/>
<path d="M3070 3870 c120 -119 188 -210 245 -325 82 -165 79 -134 83 -812 l3
-603 39 0 40 0 0 400 c0 354 -2 401 -16 407 -13 5 -14 19 -9 92 14 179 -32
392 -119 543 -89 156 -190 272 -312 358 -40 28 -31 17 46 -60z"/>
<path d="M2908 3858 l-38 -10 0 -450 c0 -290 -4 -456 -10 -469 -8 -15 -22 -19
-61 -19 l-50 0 3 -72 3 -73 105 -2 c58 -1 179 1 270 5 l164 7 7 35 c4 19 9 50
13 68 l6 32 -129 0 c-71 0 -137 3 -146 6 -43 17 -45 40 -45 509 l0 445 -27 -1
c-16 -1 -45 -6 -65 -11z"/>
<path d="M2723 3777 c-93 -50 -129 -75 -231 -166 -116 -104 -112 -90 -112
-356 l0 -228 42 7 c22 4 45 9 50 12 4 3 8 109 8 235 0 181 3 236 14 258 20 39
164 171 235 218 33 21 68 43 78 50 42 27 -8 9 -84 -30z"/>
<path d="M3277 3702 c73 -91 113 -163 149 -270 41 -121 54 -198 54 -333 0 -77
4 -110 15 -125 12 -16 15 -87 16 -434 l2 -415 7 560 c7 524 6 565 -11 633 -31
121 -120 278 -220 389 -58 64 -65 61 -12 -5z"/>
<path d="M2683 3708 c-23 -11 -23 -14 -23 -189 l0 -178 -45 -3 -45 -3 42 -63
41 -63 38 53 39 53 -3 199 c-1 123 -6 200 -12 202 -5 1 -20 -2 -32 -8z"/>
<path d="M1440 3478 c-22 -46 -52 -128 -66 -183 -27 -97 -28 -109 -32 -432
l-4 -333 39 0 38 0 -2 157 c-2 87 -7 223 -13 303 -14 198 1 311 64 498 14 39
23 72 20 72 -3 0 -23 -37 -44 -82z"/>
<path d="M2471 2941 l-33 -36 5 -135 c6 -153 27 -244 83 -353 188 -374 546
-412 718 -77 21 41 50 88 65 103 l26 28 -59 -26 c-33 -14 -96 -31 -140 -37
-45 -6 -88 -12 -96 -15 -32 -9 15 -23 81 -23 36 0 68 -3 72 -6 11 -11 -20 -59
-59 -94 -78 -68 -146 -83 -245 -54 -45 14 -67 29 -129 93 -84 85 -142 189
-181 322 -28 95 -22 126 24 131 l32 3 3 74 3 74 -50 -6 c-53 -6 -67 1 -79 46
l-7 24 -34 -36z"/>
<path d="M2344 2880 l-32 -41 4 -314 c3 -253 6 -320 18 -343 35 -68 120 -82
198 -33 25 16 48 33 51 38 3 4 -20 8 -51 9 -39 0 -66 6 -86 19 -50 33 -56 64
-57 287 -1 112 -4 252 -8 311 l-6 108 -31 -41z"/>
<path d="M996 2694 c-17 -44 -18 -223 -2 -332 38 -258 126 -456 299 -669 l50
-63 85 0 84 0 -79 88 c-101 111 -156 185 -224 297 -109 181 -184 389 -196 541
l-6 84 52 0 53 0 -19 33 c-15 25 -27 33 -55 35 -26 2 -37 -1 -42 -14z"/>
<path d="M3253 2633 c-16 -32 -39 -63 -53 -70 -17 -9 -79 -13 -196 -13 -183 0
-324 -9 -324 -20 0 -17 88 -32 225 -37 169 -6 318 8 345 32 16 14 46 153 36
163 -2 2 -17 -23 -33 -55z"/>
<path d="M1979 2573 c-10 -739 -14 -851 -32 -871 -38 -42 -124 -34 -146 14 -6
14 -11 61 -11 104 0 44 -3 80 -8 80 -4 0 -18 -7 -30 -16 -20 -14 -22 -24 -22
-100 0 -88 15 -136 45 -148 29 -11 149 -6 175 7 14 7 33 28 43 47 17 32 18 58
14 327 l-5 293 73 -68 c82 -75 155 -122 246 -159 66 -27 91 -24 40 4 -106 59
-225 145 -288 208 l-73 73 0 140 c0 83 -4 143 -10 147 -6 4 -10 -26 -11 -82z"/>
<path d="M3910 2169 c-27 -11 -90 -68 -90 -81 0 -4 59 -8 130 -8 72 0 130 4
130 9 0 18 -45 64 -76 77 -38 16 -59 17 -94 3z"/>
<path d="M2678 2049 c-114 -60 -179 -194 -149 -306 22 -81 103 -116 215 -93
81 17 143 62 183 135 44 80 41 90 -8 32 -61 -70 -112 -97 -189 -97 -59 0 -64
2 -101 39 -22 21 -39 49 -40 62 -4 85 19 137 88 204 53 50 53 52 1 24z"/>
<path d="M3068 2043 l-38 -4 0 -188 0 -187 -29 -46 c-37 -59 -113 -119 -213
-169 -120 -60 -158 -50 -173 46 -9 55 -35 125 -46 125 -6 0 -8 -67 -7 -167 l3
-168 28 -9 c24 -9 39 -5 100 27 118 60 244 139 297 185 l50 43 0 -92 0 -91 32
6 c18 3 36 12 40 19 10 15 11 678 1 675 -5 -1 -25 -3 -45 -5z"/>
<path d="M3365 1886 c-4 -73 -10 -138 -14 -143 -8 -14 -47 -33 -65 -33 -8 0
-27 10 -41 23 -21 18 -27 32 -27 67 -1 25 2 56 6 70 l7 25 -20 -23 c-27 -31
-43 -94 -35 -136 9 -53 36 -71 106 -71 53 0 62 3 84 28 23 27 24 34 24 172 0
79 -4 146 -9 149 -5 3 -12 -53 -16 -128z"/>
<path d="M2314 1983 c-3 -10 -15 -40 -27 -68 -16 -39 -22 -76 -25 -170 -5
-154 -5 -153 113 -155 50 -1 95 -2 101 -1 17 1 25 60 14 106 -13 57 -40 75
-113 75 l-60 0 6 115 c6 109 3 137 -9 98z m116 -288 c0 -24 -3 -25 -55 -25
-47 0 -55 3 -55 18 0 28 9 32 62 32 45 0 48 -2 48 -25z"/>
<path d="M1561 1518 c1 -161 4 -304 8 -318 5 -19 14 -26 39 -28 l32 -3 0 320
0 321 -40 0 -40 0 1 -292z"/>
<path d="M2108 1763 c-13 -21 -33 -50 -42 -65 l-18 -28 75 0 76 0 -15 35 c-8
19 -23 48 -33 65 l-18 30 -25 -37z"/>
<path d="M1432 1318 c3 -289 6 -299 94 -377 164 -144 452 -180 661 -82 72 34
84 48 21 24 -32 -12 -79 -17 -178 -17 -117 -1 -144 2 -205 23 -129 43 -227
111 -272 189 -28 47 -28 49 -33 267 l-5 220 -43 3 -44 3 4 -253z"/>
<path d="M1832 1459 c-46 -23 -112 -96 -112 -123 0 -30 33 -76 59 -83 19 -5
28 -1 40 18 40 60 78 104 91 104 8 0 19 -10 25 -21 31 -63 63 -69 112 -22 32
31 33 31 54 12 12 -10 32 -40 45 -66 28 -55 42 -66 50 -41 29 85 55 124 91
139 33 14 40 14 70 0 35 -17 42 -41 22 -77 -17 -32 -2 -56 55 -88 52 -29 109
-88 136 -141 20 -38 24 -7 6 53 -8 29 -30 70 -49 92 -60 71 -67 87 -67 143 0
44 -4 57 -26 77 -33 31 -85 41 -134 26 -43 -13 -116 -86 -126 -128 -7 -24 -8
-25 -15 -8 -4 11 -8 39 -8 62 -1 69 -51 91 -121 53 l-35 -18 -26 24 c-37 35
-85 40 -137 13z"/>
<path d="M1051 1360 c-73 -15 -142 -40 -211 -76 -68 -36 -134 -83 -95 -68 102
39 191 64 231 66 l49 3 0 -87 c0 -80 2 -89 30 -129 59 -84 137 -103 220 -54
67 39 100 102 100 190 -1 95 -9 121 -48 142 -37 20 -204 28 -276 13z m253
-151 c68 -54 -5 -179 -106 -179 -73 0 -141 75 -118 130 26 63 167 94 224 49z"/>
<path d="M3525 1135 c-30 -29 -32 -68 -5 -95 43 -43 110 -10 110 54 0 62 -61
86 -105 41z"/>
<path d="M3135 972 c-62 -22 -93 -26 -270 -32 -177 -7 -210 -11 -285 -35 -47
-14 -121 -30 -165 -34 l-80 -7 70 -9 c39 -5 153 -9 255 -8 167 0 195 3 284 27
101 26 247 88 267 113 14 17 9 16 -76 -15z"/>
<path d="M2318 636 c-17 -8 -34 -40 -65 -121 -47 -125 -49 -131 -28 -139 22
-8 41 2 53 30 10 21 18 24 69 24 54 0 59 -2 75 -30 18 -31 33 -36 57 -21 12 8
6 30 -35 132 -42 106 -53 124 -76 130 -15 4 -36 2 -50 -5z m55 -113 l17 -43
-40 0 c-22 0 -40 1 -40 3 0 2 7 25 16 51 18 52 23 51 47 -11z"/>
<path d="M1162 628 c-5 -7 -13 -64 -17 -127 -8 -119 -4 -134 35 -124 15 4 20
21 27 96 l8 91 28 -69 c38 -94 53 -115 81 -115 19 0 29 14 59 78 l37 77 0 -60
c0 -88 7 -107 39 -103 26 3 26 4 29 100 1 54 -1 112 -6 130 -7 29 -12 33 -43
33 -37 0 -44 -9 -93 -124 l-23 -54 -27 69 c-40 101 -51 114 -90 114 -18 0 -38
-6 -44 -12z"/>
<path d="M1556 624 c-10 -26 -7 -159 5 -193 14 -40 54 -61 119 -61 56 0 104
20 120 49 5 11 10 65 10 121 l0 101 -27 -3 c-28 -3 -28 -3 -31 -92 -2 -50 -7
-96 -13 -102 -18 -22 -68 -27 -94 -10 -23 15 -25 23 -25 95 0 95 -5 111 -35
111 -13 0 -26 -7 -29 -16z"/>
<path d="M1882 508 l3 -133 25 0 c23 0 25 4 28 48 l3 47 79 0 79 0 3 -41 c4
-49 27 -71 52 -49 14 11 16 33 14 134 l-3 121 -27 3 c-26 3 -27 2 -30 -55 l-3
-58 -82 -3 -82 -3 -3 58 c-3 55 -4 58 -31 61 l-28 3 3 -133z"/>
<path d="M2540 621 c-5 -11 -10 -70 -10 -131 0 -89 3 -112 15 -116 32 -13 45
15 46 95 l0 76 28 -75 c24 -63 32 -75 53 -78 21 -3 26 2 32 30 9 47 56 167 68
174 18 11 20 -5 19 -107 -2 -90 0 -101 14 -95 9 3 19 6 21 6 2 0 5 15 5 33 1
28 3 26 11 -15 8 -36 15 -48 28 -48 11 0 21 3 24 8 2 4 -1 63 -7 132 -10 107
-15 125 -30 128 -10 2 -27 -4 -37 -13 -16 -14 -18 -15 -24 0 -4 11 -16 15 -38
13 -33 -3 -43 -18 -73 -113 -6 -16 -12 -9 -37 40 -17 33 -36 63 -42 67 -21 14
-55 8 -66 -11z"/>
<path d="M2946 632 c-3 -5 -8 -63 -12 -129 -7 -117 -6 -121 14 -128 35 -11 42
2 42 83 l1 77 31 -73 c23 -54 37 -74 54 -78 13 -3 27 -3 32 0 6 3 23 41 38 83
l29 78 5 -75 c3 -41 9 -81 13 -87 10 -15 43 -17 52 -3 6 10 -11 211 -21 243
-4 14 -14 17 -42 15 -35 -3 -37 -5 -67 -81 l-32 -79 -27 64 c-15 34 -35 71
-43 81 -17 18 -58 23 -67 9z"/>
<path d="M3402 628 c-12 -15 -92 -219 -92 -235 0 -14 26 -24 44 -17 7 3 18 16
24 30 10 22 18 24 71 24 55 0 61 -2 73 -27 14 -29 43 -42 60 -25 10 10 -64
217 -89 245 -19 20 -76 23 -91 5z m88 -144 c0 -2 -18 -4 -40 -4 -22 0 -40 4
-40 8 0 5 7 30 17 57 l16 49 24 -53 c12 -30 23 -55 23 -57z"/>
<path d="M3642 508 l3 -133 25 0 25 0 0 130 0 130 -28 3 -28 3 3 -133z"/>
<path d="M3750 510 l0 -130 70 0 c83 0 122 17 150 63 40 65 13 154 -55 183
-19 8 -64 14 -100 14 l-65 0 0 -130z m121 70 c89 -25 61 -150 -33 -150 l-28 0
0 80 c0 87 0 87 61 70z"/>
</g>
</svg>